HIERARCHY
ROOT Hips
{
  OFFSET 0.000 67.070 0.000
  CHANNELS 6 Xposition Yposition Zposition Zrotation Xrotation Yrotation
  JOINT LeftUpLeg
  {
    OFFSET 7.798 0.599 3.456
    CHANNELS 6 Xposition Yposition Zposition Zrotation Xrotation Yrotation
    JOINT LeftLeg
    {
      OFFSET 0.000 -34.232 0.000
      CHANNELS 6 Xposition Yposition Zposition Zrotation Xrotation Yrotation
      JOINT LeftFoot
      {
        OFFSET 0.000 -33.436 0.000
        CHANNELS 6 Xposition Yposition Zposition Zrotation Xrotation Yrotation
        End Site
        {
          OFFSET 0.000 0.000 9.668
        }
      }
    }
  }
  JOINT RightUpLeg
  {
    OFFSET -7.798 0.599 3.456
    CHANNELS 6 Xposition Yposition Zposition Zrotation Xrotation Yrotation
    JOINT RightLeg
    {
      OFFSET 0.000 -34.232 0.000
      CHANNELS 6 Xposition Yposition Zposition Zrotation Xrotation Yrotation
      JOINT RightFoot
      {
        OFFSET 0.000 -33.436 0.000
        CHANNELS 6 Xposition Yposition Zposition Zrotation Xrotation Yrotation
        End Site
        {
          OFFSET 0.000 0.000 9.668
        }
      }
    }
  }
  JOINT Spine
  {
    OFFSET 0.000 32.222 0.000
    CHANNELS 6 Xposition Yposition Zposition Zrotation Xrotation Yrotation
    JOINT Spine1
    {
      OFFSET 0.000 23.632 0.000
      CHANNELS 6 Xposition Yposition Zposition Zrotation Xrotation Yrotation
      JOINT LeftShoulder
      {
        OFFSET 1.707 -0.483 0.166
        CHANNELS 6 Xposition Yposition Zposition Zrotation Xrotation Yrotation
        JOINT LeftArm
        {
          OFFSET 15.748 0.000 0.000
          CHANNELS 6 Xposition Yposition Zposition Zrotation Xrotation Yrotation
          JOINT LeftForeArm
          {
            OFFSET 25.328 0.000 0.000
            CHANNELS 6 Xposition Yposition Zposition Zrotation Xrotation Yrotation
            JOINT LeftHand
            {
              OFFSET 22.735 0.000 0.000
              CHANNELS 6 Xposition Yposition Zposition Zrotation Xrotation Yrotation
              JOINT LeftHandThumb1
              {
                OFFSET 4.877 -1.044 3.608
                CHANNELS 6 Xposition Yposition Zposition Zrotation Xrotation Yrotation
                JOINT LeftHandThumb2
                {
                  OFFSET 2.665 0.000 0.000
                  CHANNELS 6 Xposition Yposition Zposition Zrotation Xrotation Yrotation
                  JOINT LeftHandThumb3
                  {
                    OFFSET 2.543 -0.000 -0.000
                    CHANNELS 6 Xposition Yposition Zposition Zrotation Xrotation Yrotation
                    End Site
                    {
                      OFFSET 2.667 0.000 0.000
                    }
                  }
                }
              }
              JOINT LeftHandIndex1
              {
                OFFSET 9.232 -0.301 2.144
                CHANNELS 6 Xposition Yposition Zposition Zrotation Xrotation Yrotation
                JOINT LeftHandIndex2
                {
                  OFFSET 4.225 -0.000 -0.000
                  CHANNELS 6 Xposition Yposition Zposition Zrotation Xrotation Yrotation
                  JOINT LeftHandIndex3
                  {
                    OFFSET 2.654 0.000 0.000
                    CHANNELS 6 Xposition Yposition Zposition Zrotation Xrotation Yrotation
                    End Site
                    {
                      OFFSET 1.958 -0.000 -0.000
                    }
                  }
                }
              }
              JOINT LeftHandMiddle1
              {
                OFFSET 8.920 0.000 0.000
                CHANNELS 6 Xposition Yposition Zposition Zrotation Xrotation Yrotation
                JOINT LeftHandMiddle2
                {
                  OFFSET 4.863 -0.000 -0.000
                  CHANNELS 6 Xposition Yposition Zposition Zrotation Xrotation Yrotation
                  JOINT LeftHandMiddle3
                  {
                    OFFSET 2.765 0.000 0.000
                    CHANNELS 6 Xposition Yposition Zposition Zrotation Xrotation Yrotation
                    End Site
                    {
                      OFFSET 2.006 -0.000 0.000
                    }
                  }
                }
              }
              JOINT LeftHandRing1
              {
                OFFSET 8.689 -0.126 -2.087
                CHANNELS 6 Xposition Yposition Zposition Zrotation Xrotation Yrotation
                JOINT LeftHandRing2
                {
                  OFFSET 4.538 -0.000 0.000
                  CHANNELS 6 Xposition Yposition Zposition Zrotation Xrotation Yrotation
                  JOINT LeftHandRing3
                  {
                    OFFSET 2.305 0.000 0.000
                    CHANNELS 6 Xposition Yposition Zposition Zrotation Xrotation Yrotation
                    End Site
                    {
                      OFFSET 1.923 0.000 0.000
                    }
                  }
                }
              }
              JOINT LeftHandPinky1
              {
                OFFSET 8.391 -0.817 -3.758
                CHANNELS 6 Xposition Yposition Zposition Zrotation Xrotation Yrotation
                JOINT LeftHandPinky2
                {
                  OFFSET 3.044 0.000 0.000
                  CHANNELS 6 Xposition Yposition Zposition Zrotation Xrotation Yrotation
                  JOINT LeftHandPinky3
                  {
                    OFFSET 1.975 -0.000 -0.000
                    CHANNELS 6 Xposition Yposition Zposition Zrotation Xrotation Yrotation
                    End Site
                    {
                      OFFSET 1.667 0.000 0.000
                    }
                  }
                }
              }
            }
          }
        }
      }
      JOINT RightShoulder
      {
        OFFSET -1.707 -0.483 0.166
        CHANNELS 6 Xposition Yposition Zposition Zrotation Xrotation Yrotation
        JOINT RightArm
        {
          OFFSET -15.748 0.000 0.000
          CHANNELS 6 Xposition Yposition Zposition Zrotation Xrotation Yrotation
          JOINT RightForeArm
          {
            OFFSET -25.328 0.000 0.000
            CHANNELS 6 Xposition Yposition Zposition Zrotation Xrotation Yrotation
            JOINT RightHand
            {
              OFFSET -22.735 0.000 0.000
              CHANNELS 6 Xposition Yposition Zposition Zrotation Xrotation Yrotation
              JOINT RightHandThumb1
              {
                OFFSET -4.877 -1.044 3.608
                CHANNELS 6 Xposition Yposition Zposition Zrotation Xrotation Yrotation
                JOINT RightHandThumb2
                {
                  OFFSET -2.665 0.000 -0.000
                  CHANNELS 6 Xposition Yposition Zposition Zrotation Xrotation Yrotation
                  JOINT RightHandThumb3
                  {
                    OFFSET -2.543 0.000 0.000
                    CHANNELS 6 Xposition Yposition Zposition Zrotation Xrotation Yrotation
                    End Site
                    {
                      OFFSET -2.667 -0.000 -0.000
                    }
                  }
                }
              }
              JOINT RightHandIndex1
              {
                OFFSET -9.232 -0.301 2.144
                CHANNELS 6 Xposition Yposition Zposition Zrotation Xrotation Yrotation
                JOINT RightHandIndex2
                {
                  OFFSET -4.225 0.000 0.000
                  CHANNELS 6 Xposition Yposition Zposition Zrotation Xrotation Yrotation
                  JOINT RightHandIndex3
                  {
                    OFFSET -2.654 0.000 0.000
                    CHANNELS 6 Xposition Yposition Zposition Zrotation Xrotation Yrotation
                    End Site
                    {
                      OFFSET -1.958 -0.000 -0.000
                    }
                  }
                }
              }
              JOINT RightHandMiddle1
              {
                OFFSET -8.920 -0.000 -0.000
                CHANNELS 6 Xposition Yposition Zposition Zrotation Xrotation Yrotation
                JOINT RightHandMiddle2
                {
                  OFFSET -4.863 0.000 0.000
                  CHANNELS 6 Xposition Yposition Zposition Zrotation Xrotation Yrotation
                  JOINT RightHandMiddle3
                  {
                    OFFSET -2.765 0.000 -0.000
                    CHANNELS 6 Xposition Yposition Zposition Zrotation Xrotation Yrotation
                    End Site
                    {
                      OFFSET -2.006 0.000 0.000
                    }
                  }
                }
              }
              JOINT RightHandRing1
              {
                OFFSET -8.689 -0.126 -2.087
                CHANNELS 6 Xposition Yposition Zposition Zrotation Xrotation Yrotation
                JOINT RightHandRing2
                {
                  OFFSET -4.538 0.000 0.000
                  CHANNELS 6 Xposition Yposition Zposition Zrotation Xrotation Yrotation
                  JOINT RightHandRing3
                  {
                    OFFSET -2.305 0.000 0.000
                    CHANNELS 6 Xposition Yposition Zposition Zrotation Xrotation Yrotation
                    End Site
                    {
                      OFFSET -1.923 0.000 0.000
                    }
                  }
                }
              }
              JOINT RightHandPinky1
              {
                OFFSET -8.391 -0.817 -3.758
                CHANNELS 6 Xposition Yposition Zposition Zrotation Xrotation Yrotation
                JOINT RightHandPinky2
                {
                  OFFSET -3.044 -0.000 -0.000
                  CHANNELS 6 Xposition Yposition Zposition Zrotation Xrotation Yrotation
                  JOINT RightHandPinky3
                  {
                    OFFSET -1.975 0.000 -0.000
                    CHANNELS 6 Xposition Yposition Zposition Zrotation Xrotation Yrotation
                    End Site
                    {
                      OFFSET -1.667 0.000 0.000
                    }
                  }
                }
              }
            }
          }
        }
      }
      JOINT Neck
      {
        OFFSET 0.000 0.774 0.000
        CHANNELS 6 Xposition Yposition Zposition Zrotation Xrotation Yrotation
        JOINT Head
        {
          OFFSET 0.000 7.035 0.000
          CHANNELS 6 Xposition Yposition Zposition Zrotation Xrotation Yrotation
          End Site
          {
            OFFSET 0.000 16.085 0.000
          }
        }
      }
    }
  }
}
MOTION
Frames:	4
Frame Time:	0.033333
6.51977 69.24069 -218.57458 28.28523 -0.08536 -22.68659 9.01225 0.20501 3.15444 -9.73267 1.33074 17.19718 0.01259 -34.85099 0.07966 -12.38008 1.61309 8.71942 -0.00048 -31.66058 0.00093 -4.71900 32.97180 8.62327 -6.03913 0.84675 3.16469 -30.77555 -24.05241 -10.59457 -0.00341 -33.03879 0.00168 -8.48879 28.53713 1.23141 0.00883 -28.61179 0.00934 -0.79520 20.97043 2.24031 -0.00268 33.77259 -0.00047 -0.52415 1.78329 2.75645 -0.00813 24.76303 -0.00072 -0.86407 2.16769 3.14194 1.70864 -0.52153 0.17873 -16.90420 1.77024 -5.80734 16.08159 0.00415 0.00115 -49.78508 7.22396 -1.76906 26.51954 0.00047 -0.00471 -22.85416 12.41473 -21.55224 22.49376 -0.04375 -0.08186 -35.06552 39.24389 15.43026 4.87700 -1.04399 3.60801 -38.84870 -18.17666 4.02960 2.66501 0.00000 0.00000 0.00000 -0.00000 5.00000 2.54300 -0.00001 -0.00005 0.00000 -0.00000 60.00000 9.23200 -0.30100 2.14401 2.00000 -0.00000 -0.00000 4.22500 -0.00001 -0.00004 2.00000 0.00000 -0.00000 2.65399 0.00000 0.00000 2.00000 -0.00000 0.00000 8.92000 0.00001 0.00001 -80.00000 -0.00000 0.00000 4.86301 -0.00001 -0.00001 -90.00000 0.00000 0.00000 2.76501 0.00000 0.00002 -70.00000 -0.00000 0.00000 8.68900 -0.12600 -2.08701 -80.00000 -0.00000 0.00000 4.53800 -0.00001 0.00004 -90.00000 0.00000 0.00000 2.30500 0.00000 0.00002 -70.00000 -0.00000 0.00000 8.39100 -0.81700 -3.75803 2.00000 -0.00000 -0.00000 3.04399 0.00001 0.00002 2.00000 0.00000 -0.00000 1.97500 -0.00001 -0.00002 2.00000 -0.00000 0.00000 -1.33085 -0.94386 0.18133 34.91074 4.44768 6.34152 -14.97731 -0.02736 0.02851 40.99336 -0.67914 3.33739 -22.49435 -0.03242 0.01385 1.50691 -0.30878 22.55764 -21.52006 -0.00187 -0.00484 12.10782 1.71794 0.22816 -4.87700 -1.04400 3.60799 40.90539 11.75460 -3.91034 -2.66500 0.00000 -0.00001 -0.00000 -0.00000 -5.00000 -2.54299 0.00001 0.00001 0.00001 -0.00000 -60.00000 -9.23200 -0.30100 2.14398 -2.00000 0.00000 -0.00000 -4.22500 0.00000 0.00000 -2.00000 0.00000 -0.00000 -2.65401 0.00001 0.00004 -2.00000 0.00000 -0.00000 -8.92000 -0.00001 -0.00002 80.00000 -0.00000 0.00000 -4.86299 0.00001 0.00001 90.00000 -0.00000 0.00001 -2.76501 0.00001 -0.00001 70.00000 -0.00000 0.00001 -8.68900 -0.12600 -2.08702 80.00000 -0.00000 0.00000 -4.53799 0.00001 0.00002 90.00000 -0.00000 0.00001 -2.30500 0.00001 0.00000 70.00000 -0.00000 0.00001 -8.39100 -0.81701 -3.75801 -2.00000 0.00000 -0.00000 -3.04400 -0.00001 -0.00004 -2.00000 0.00000 -0.00000 -1.97500 0.00000 -0.00001 -2.00000 0.00000 -0.00000 0.00000 0.80512 -0.00002 -0.00000 0.00001 0.00000 -0.01064 7.27505 0.00012 16.30400 11.70638 -5.96347 
6.49297 69.20615 -218.61687 28.27126 -0.03680 -22.60860 9.01246 0.21719 3.14332 -9.65687 1.29930 17.15142 0.01002 -34.67004 0.07075 -12.34142 1.58123 8.53488 -0.00048 -31.81859 0.00018 -4.50764 32.57642 8.32844 -6.03820 0.84921 3.16551 -30.76527 -24.12307 -10.64375 -0.00307 -33.04525 0.00160 -8.48118 28.58090 1.20702 0.00883 -28.59983 0.00867 -0.81894 20.82682 2.32173 -0.00240 33.78084 -0.00017 -0.63852 1.74921 2.79104 -0.00604 24.76427 -0.00072 -0.94610 2.17565 3.18645 1.71609 -0.51522 0.17755 -16.62069 1.71879 -5.73301 16.15416 0.00460 -0.00208 -50.17803 7.54270 -1.76028 26.47199 -0.00013 -0.00484 -22.25737 12.27937 -21.72455 22.19270 -0.03526 -0.06299 -34.62175 38.48357 13.55545 4.87700 -1.04399 3.60801 -38.84870 -18.17666 4.02960 2.66501 0.00000 0.00000 0.00000 -0.00000 5.00000 2.54300 -0.00001 -0.00005 0.00000 -0.00000 60.00000 9.23200 -0.30100 2.14401 2.00000 -0.00000 -0.00000 4.22500 -0.00001 -0.00004 2.00000 0.00000 -0.00000 2.65399 0.00000 0.00000 2.00000 -0.00000 0.00000 8.92000 0.00001 0.00001 -80.00000 -0.00000 0.00000 4.86301 -0.00001 -0.00001 -90.00000 0.00000 0.00000 2.76501 0.00000 0.00002 -70.00000 -0.00000 0.00000 8.68900 -0.12600 -2.08701 -80.00000 -0.00000 0.00000 4.53800 -0.00001 0.00004 -90.00000 0.00000 0.00000 2.30500 0.00000 0.00002 -70.00000 -0.00000 0.00000 8.39100 -0.81700 -3.75803 2.00000 -0.00000 -0.00000 3.04399 0.00001 0.00002 2.00000 0.00000 -0.00000 1.97500 -0.00001 -0.00002 2.00000 -0.00000 0.00000 -1.33462 -0.95375 0.18020 35.11461 4.41705 6.25175 -15.00710 -0.02537 0.02348 41.12803 -0.79094 3.38573 -22.44196 -0.01139 0.00846 1.79879 -0.56251 22.37259 -21.50348 -0.00512 -0.00453 11.11818 0.82859 1.35095 -4.87700 -1.04400 3.60799 40.90539 11.75460 -3.91034 -2.66500 0.00000 -0.00001 -0.00000 -0.00000 -5.00000 -2.54299 0.00001 0.00001 0.00001 -0.00000 -60.00000 -9.23200 -0.30100 2.14398 -2.00000 0.00000 -0.00000 -4.22500 0.00000 0.00000 -2.00000 0.00000 -0.00000 -2.65401 0.00001 0.00004 -2.00000 0.00000 -0.00000 -8.92000 -0.00001 -0.00002 80.00000 -0.00000 0.00000 -4.86299 0.00001 0.00001 90.00000 -0.00000 0.00001 -2.76501 0.00001 -0.00001 70.00000 -0.00000 0.00001 -8.68900 -0.12600 -2.08702 80.00000 -0.00000 0.00000 -4.53799 0.00001 0.00002 90.00000 -0.00000 0.00001 -2.30500 0.00001 0.00000 70.00000 -0.00000 0.00001 -8.39100 -0.81701 -3.75801 -2.00000 0.00000 -0.00000 -3.04400 -0.00001 -0.00004 -2.00000 0.00000 -0.00000 -1.97500 0.00000 -0.00001 -2.00000 0.00000 -0.00000 0.00000 0.80535 -0.00002 -0.00000 0.00001 0.00000 -0.00695 7.27571 -0.00003 15.30028 11.90895 -5.85633 
6.44162 69.21095 -218.67636 28.19484 0.03358 -22.53529 9.01266 0.23148 3.13537 -9.49701 1.24209 17.16462 0.00990 -34.57988 0.06296 -12.35635 1.62632 8.32353 -0.00048 -31.89426 -0.00067 -4.39330 32.24113 8.19353 -6.03771 0.86792 3.16642 -30.60599 -24.16183 -10.60242 -0.00273 -33.05190 0.00152 -8.46660 28.55401 1.13650 0.00883 -28.62365 0.00807 -0.89494 20.93154 2.52317 -0.00222 33.76415 0.00006 -0.76653 1.69926 2.82439 -0.00496 24.76048 -0.00075 -1.03567 2.17889 3.23411 1.71940 -0.50596 0.17459 -16.27655 1.67714 -5.71370 16.18635 0.00509 -0.00447 -50.53625 8.23596 -1.67326 26.49767 -0.00077 -0.00504 -22.35179 11.99358 -21.34905 23.02785 -0.05421 -0.07882 -32.22020 37.88051 10.68594 4.87700 -1.04399 3.60801 -38.84870 -18.17666 4.02960 2.66501 0.00000 0.00000 0.00000 -0.00000 5.00000 2.54300 -0.00001 -0.00005 0.00000 -0.00000 60.00000 9.23200 -0.30100 2.14401 2.00000 -0.00000 -0.00000 4.22500 -0.00001 -0.00004 2.00000 0.00000 -0.00000 2.65399 0.00000 0.00000 2.00000 -0.00000 0.00000 8.92000 0.00001 0.00001 -80.00000 -0.00000 0.00000 4.86301 -0.00001 -0.00001 -90.00000 0.00000 0.00000 2.76501 0.00000 0.00002 -70.00000 -0.00000 0.00000 8.68900 -0.12600 -2.08701 -80.00000 -0.00000 0.00000 4.53800 -0.00001 0.00004 -90.00000 0.00000 0.00000 2.30500 0.00000 0.00002 -70.00000 -0.00000 0.00000 8.39100 -0.81700 -3.75803 2.00000 -0.00000 -0.00000 3.04399 0.00001 0.00002 2.00000 0.00000 -0.00000 1.97500 -0.00001 -0.00002 2.00000 -0.00000 0.00000 -1.34132 -0.96496 0.17912 35.29851 4.40789 6.19692 -15.06678 -0.02026 0.01903 41.32992 -0.94085 3.39077 -22.32485 0.00357 0.00902 2.03803 -0.80119 22.21591 -21.48811 -0.00825 -0.00392 10.36583 0.00384 2.04999 -4.87700 -1.04400 3.60799 40.90539 11.75460 -3.91034 -2.66500 0.00000 -0.00001 -0.00000 -0.00000 -5.00000 -2.54299 0.00001 0.00001 0.00001 -0.00000 -60.00000 -9.23200 -0.30100 2.14398 -2.00000 0.00000 -0.00000 -4.22500 0.00000 0.00000 -2.00000 0.00000 -0.00000 -2.65401 0.00001 0.00004 -2.00000 0.00000 -0.00000 -8.92000 -0.00001 -0.00002 80.00000 -0.00000 0.00000 -4.86299 0.00001 0.00001 90.00000 -0.00000 0.00001 -2.76501 0.00001 -0.00001 70.00000 -0.00000 0.00001 -8.68900 -0.12600 -2.08702 80.00000 -0.00000 0.00000 -4.53799 0.00001 0.00002 90.00000 -0.00000 0.00001 -2.30500 0.00001 0.00000 70.00000 -0.00000 0.00001 -8.39100 -0.81701 -3.75801 -2.00000 0.00000 -0.00000 -3.04400 -0.00001 -0.00004 -2.00000 0.00000 -0.00000 -1.97500 0.00000 -0.00001 -2.00000 0.00000 -0.00000 0.00000 0.80558 -0.00002 -0.00000 0.00001 0.00000 -0.00307 7.27367 -0.00021 13.82417 11.97703 -5.39967 
6.38741 69.26259 -218.75453 28.06019 0.12963 -22.47055 9.01279 0.24800 3.12678 -9.29537 1.12688 17.17852 0.01193 -34.55694 0.05555 -12.35724 1.73644 8.17514 -0.00048 -32.03519 -0.00200 -4.34593 31.56177 8.26005 -6.03737 0.89313 3.16734 -30.37688 -24.20624 -10.54014 -0.00241 -33.05952 0.00144 -8.38503 28.49591 1.03539 0.00883 -28.70169 0.00756 -0.90395 20.99697 2.54097 -0.00207 33.72657 0.00022 -0.90673 1.65590 2.86858 -0.00408 24.74040 -0.00082 -1.09999 2.19071 3.29493 1.71856 -0.49454 0.17118 -15.89690 1.63666 -5.71290 16.18318 0.00561 -0.00754 -50.90593 8.45687 -1.50838 26.59677 -0.00145 -0.00531 -22.22463 11.96775 -21.68483 22.66298 -0.03542 -0.06169 -29.51193 33.52286 8.28942 4.87700 -1.04399 3.60801 -38.84870 -18.17666 4.02960 2.66501 0.00000 0.00000 0.00000 -0.00000 5.00000 2.54300 -0.00001 -0.00005 0.00000 -0.00000 60.00000 9.23200 -0.30100 2.14401 2.00000 -0.00000 -0.00000 4.22500 -0.00001 -0.00004 2.00000 0.00000 -0.00000 2.65399 0.00000 0.00000 2.00000 -0.00000 0.00000 8.92000 0.00001 0.00001 -80.00000 -0.00000 0.00000 4.86301 -0.00001 -0.00001 -90.00000 0.00000 0.00000 2.76501 0.00000 0.00002 -70.00000 -0.00000 0.00000 8.68900 -0.12600 -2.08701 -80.00000 -0.00000 0.00000 4.53800 -0.00001 0.00004 -90.00000 0.00000 0.00000 2.30500 0.00000 0.00002 -70.00000 -0.00000 0.00000 8.39100 -0.81700 -3.75803 2.00000 -0.00000 -0.00000 3.04399 0.00001 0.00002 2.00000 0.00000 -0.00000 1.97500 -0.00001 -0.00002 2.00000 -0.00000 0.00000 -1.35295 -0.97400 0.17910 35.33823 4.37263 6.14045 -15.14423 -0.00858 0.01262 41.81522 -1.07251 3.32992 -22.12345 0.03125 0.02361 2.21328 -1.07150 22.49230 -21.47643 -0.01135 0.00278 9.43540 -1.18899 1.31150 -4.87700 -1.04400 3.60799 40.90539 11.75460 -3.91034 -2.66500 0.00000 -0.00001 -0.00000 -0.00000 -5.00000 -2.54299 0.00001 0.00001 0.00001 -0.00000 -60.00000 -9.23200 -0.30100 2.14398 -2.00000 0.00000 -0.00000 -4.22500 0.00000 0.00000 -2.00000 0.00000 -0.00000 -2.65401 0.00001 0.00004 -2.00000 0.00000 -0.00000 -8.92000 -0.00001 -0.00002 80.00000 -0.00000 0.00000 -4.86299 0.00001 0.00001 90.00000 -0.00000 0.00001 -2.76501 0.00001 -0.00001 70.00000 -0.00000 0.00001 -8.68900 -0.12600 -2.08702 80.00000 -0.00000 0.00000 -4.53799 0.00001 0.00002 90.00000 -0.00000 0.00001 -2.30500 0.00001 0.00000 70.00000 -0.00000 0.00001 -8.39100 -0.81701 -3.75801 -2.00000 0.00000 -0.00000 -3.04400 -0.00001 -0.00004 -2.00000 0.00000 -0.00000 -1.97500 0.00000 -0.00001 -2.00000 0.00000 -0.00000 0.00000 0.80581 -0.00002 -0.00000 0.00001 0.00000 0.00179 7.26592 -0.00042 11.89120 11.99906 -4.99052 
